<svg width="342" height="227" viewBox="0 0 342 227" fill="none" xmlns="http://www.w3.org/2000/svg">
<g clip-path="url(#clip0_1_32)">
<path d="M173.254 63.8007C170.205 58.7593 166.591 53.3766 160.932 51.7305C154.379 49.8241 147.647 53.6111 141.937 57.3482C124.859 68.5244 108.414 80.6362 92.6749 93.6282L92.6921 93.8239C104.945 92.9792 117.199 92.1346 129.452 91.29C138.305 90.6797 147.462 89.9853 155.286 85.799C158.254 84.2105 161.148 82.0886 164.513 81.9407C168.692 81.757 172.336 84.6748 175.2 87.7232C192.142 105.756 197.044 133.332 216.051 149.175C204.066 119.63 189.755 91.0829 173.254 63.8007V63.8007Z" fill="#F2F2F2"/>
<path d="M277.39 216.749C275.516 214.384 274.751 213.83 272.903 211.444C257.856 191.991 243.713 171.882 230.474 151.115C221.482 137.011 212.936 122.636 204.835 107.99C200.979 101.028 197.228 94.0101 193.583 86.9381C190.754 81.4546 187.989 75.9383 185.287 70.3893C184.514 68.8044 183.763 67.2121 183.016 65.6163C181.255 61.8635 179.527 58.0925 177.672 54.3907C175.558 50.1715 172.985 45.7483 169.103 42.9136C167.336 41.5706 165.223 40.7581 163.012 40.5709C159.851 40.3668 156.935 41.6712 154.194 43.0958C134.139 53.549 115.364 66.6547 98.3815 81.5676C81.3557 96.5139 66.1374 113.4 53.0369 131.881C52.6361 132.453 51.6884 131.906 52.0929 131.331C53.6858 129.079 55.3103 126.851 56.9664 124.648C77.5583 97.2733 102.807 73.7322 131.559 55.1011C136.396 51.9677 141.324 48.9813 146.343 46.1418C148.873 44.7099 151.413 43.2962 153.998 41.97C156.531 40.6692 159.221 39.4997 162.115 39.4559C171.964 39.3029 177.064 50.452 180.566 57.954C181.667 60.315 182.781 62.6687 183.909 65.0151C188.17 73.9235 192.595 82.7505 197.184 91.4961C200.016 96.8958 202.91 102.264 205.867 107.6C215.067 124.218 224.845 140.5 235.202 156.445C248.922 177.567 262.533 196.225 278.163 215.976C278.593 216.523 277.824 217.303 277.39 216.749Z" fill="#E4E4E4"/>
<path d="M97.4081 76.0622C96.8359 75.4246 96.2673 74.787 95.6913 74.1494C91.1496 69.1286 86.2763 64.1662 80.0395 61.2878C77.0657 59.8721 73.8195 59.1199 70.5259 59.0835C67.1214 59.0944 63.7936 59.9871 60.6479 61.2368C59.1607 61.8307 57.7063 62.5048 56.2739 63.2225C54.6372 64.046 53.0296 64.9241 51.4296 65.8094C48.426 67.4709 45.4613 69.2052 42.5357 71.0123C36.7145 74.6085 31.0756 78.4791 25.619 82.6242C22.7903 84.7739 20.02 86.994 17.3081 89.2845C14.7858 91.4123 12.3145 93.5972 9.89417 95.8392C9.3766 96.3165 8.6038 95.5441 9.12137 95.0668C9.75925 94.4729 10.4044 93.8826 11.0496 93.2997C12.8721 91.6528 14.7239 90.0375 16.6048 88.4538C20.0346 85.5608 23.5533 82.7796 27.1608 80.1102C32.7706 75.9566 38.5735 72.0847 44.5695 68.4947C47.5658 66.7021 50.6033 64.9848 53.6821 63.3428C54.6117 62.8472 55.5522 62.3627 56.5035 61.9036C58.6621 60.8152 60.905 59.9026 63.2103 59.1746C66.476 58.1186 69.9311 57.7793 73.3399 58.1799C76.6312 58.6585 79.8023 59.755 82.6859 61.4117C88.8095 64.833 93.5589 70.1233 98.1809 75.2862C98.6476 75.8108 97.8783 76.5869 97.4081 76.0622Z" fill="#E4E4E4"/>
<path d="M222.879 128.091L237.553 122.726L244.839 120.062C247.211 119.195 249.579 118.207 252.031 117.586C254.163 116.977 256.426 117.006 258.542 117.669C260.428 118.367 262.155 119.437 263.62 120.815C265.116 122.193 266.508 123.679 267.785 125.261C269.371 127.167 270.934 129.092 272.503 131.011C278.982 138.931 285.419 146.886 291.813 154.874C298.207 162.863 304.558 170.886 310.866 178.942C317.19 187.018 323.471 195.128 329.707 203.272C330.471 204.27 331.235 205.268 331.998 206.266C332.419 206.818 333.369 206.274 332.942 205.715C326.659 197.489 320.332 189.297 313.962 181.139C307.576 172.961 301.145 164.818 294.671 156.709C288.197 148.601 281.679 140.528 275.117 132.49C273.482 130.488 271.845 128.487 270.205 126.489C268.821 124.804 267.453 123.1 265.936 121.531C263.15 118.652 259.67 116.107 255.505 116.038C253.055 115.998 250.685 116.774 248.409 117.597C245.956 118.484 243.509 119.388 241.059 120.284L226.283 125.686L222.589 127.037C221.933 127.276 222.216 128.333 222.879 128.091L222.879 128.091Z" fill="#E4E4E4"/>
<path d="M78.1085 67.6054C70.6516 63.7746 61.102 64.5249 54.2496 69.311C67.32 71.565 80.2473 74.5809 92.9655 78.3432C87.6841 75.2495 83.5529 70.4024 78.1085 67.6054Z" fill="#F2F2F2"/>
<path d="M54.1762 69.2978L52.7407 70.4641C53.2263 70.0559 53.7311 69.6732 54.2496 69.311C54.2251 69.3068 54.2007 69.302 54.1762 69.2978Z" fill="#F2F2F2"/>
<path d="M263.067 128.144C261.623 126.387 260.061 124.546 257.9 123.833L255.883 123.912C271.238 151.033 291.976 174.732 316.825 193.553C298.905 171.75 280.986 149.947 263.067 128.144Z" fill="#F2F2F2"/>
<path d="M137.634 113.646C138.567 117.036 140.67 119.986 143.571 121.976C144.692 122.739 146.019 123.471 146.402 124.771C146.604 125.601 146.48 126.476 146.055 127.216C145.631 127.946 145.115 128.62 144.52 129.219L144.465 129.423C141.683 127.775 139.035 125.689 137.498 122.845C135.961 120 135.746 116.271 137.634 113.646" fill="#F2F2F2"/>
<path d="M230.278 194.327C231.211 197.717 233.314 200.668 236.215 202.657C237.336 203.42 238.663 204.152 239.046 205.453C239.248 206.282 239.124 207.157 238.699 207.897C238.275 208.628 237.759 209.301 237.164 209.901L237.109 210.104C234.327 208.456 231.679 206.371 230.142 203.526C228.605 200.681 228.39 196.953 230.278 194.327" fill="#F2F2F2"/>
<path d="M45.3874 188.763C46.3209 192.153 48.4239 195.103 51.3243 197.093C52.4456 197.856 53.7723 198.588 54.1559 199.889C54.3577 200.718 54.2333 201.593 53.8085 202.333C53.3845 203.064 52.8685 203.737 52.2732 204.337L52.2189 204.54C49.4362 202.892 46.7889 200.807 45.2518 197.962C43.7147 195.117 43.5001 191.389 45.3874 188.763" fill="#F2F2F2"/>
<path d="M258.15 40.5394C269.35 40.5394 278.428 31.4643 278.428 20.2697C278.428 9.07505 269.35 0 258.15 0C246.951 0 237.872 9.07505 237.872 20.2697C237.872 31.4643 246.951 40.5394 258.15 40.5394Z" fill="#6C63FF"/>
<path d="M294.745 4.71783C284.917 3.38999 273.697 8.69971 271.15 18.2801C270.508 16.5767 269.341 15.1214 267.817 14.1244C266.294 13.1274 264.493 12.6404 262.674 12.7337C260.855 12.8269 259.113 13.4957 257.7 14.6433C256.286 15.791 255.275 17.358 254.81 19.1182L255.936 19.9237C276.996 24.4761 298.797 24.3776 319.816 19.635C312.98 12.4536 304.573 6.04565 294.745 4.71783Z" fill="#F0F0F0"/>
<path d="M252.598 31.7441C242.77 30.4162 231.55 35.726 229.003 45.3063C228.361 43.6029 227.194 42.1476 225.67 41.1506C224.147 40.1537 222.345 39.6666 220.527 39.7599C218.708 39.8532 216.966 40.522 215.553 41.6696C214.139 42.8172 213.128 44.3843 212.663 46.1444L213.789 46.9499C234.849 51.5023 256.65 51.4038 277.669 46.6612C270.833 39.4798 262.425 33.0719 252.598 31.7441Z" fill="#F0F0F0"/>
<path d="M338.374 36.8544C338.333 36.8545 338.293 36.8482 338.254 36.8357C233.122 3.60212 140.463 7.948 81.2442 17.4459C73.1852 18.738 65.1046 20.2304 57.2269 21.8819C55.2157 22.303 53.1292 22.7544 51.0254 23.2244C48.5129 23.7837 46.0339 24.3597 43.6567 24.9357C42.6301 25.1787 41.6235 25.4236 40.637 25.6704C39.1426 26.0391 37.6263 26.4234 36.0009 26.8457C34.1847 27.3137 32.3393 27.8047 30.5149 28.305C30.5082 28.3074 30.5014 28.3093 30.4945 28.3108L30.4947 28.3112C28.434 28.8736 26.3842 29.4524 24.402 30.0303C23.3291 30.34 22.2932 30.6455 21.3009 30.947C21.19 30.9777 21.0918 31.0072 20.9922 31.0375L20.779 31.1023C20.6555 31.1399 20.5336 31.1768 20.4117 31.2117L20.4039 31.2141L20.4041 31.2145L20.0814 31.3146C19.6966 31.4311 19.3211 31.5448 18.9519 31.6581C9.19248 34.6653 3.82741 36.8047 3.77441 36.8257C3.72594 36.8451 3.67412 36.8548 3.62191 36.8542C3.5697 36.8536 3.51811 36.8427 3.47011 36.8222C3.4221 36.8017 3.3786 36.7719 3.3421 36.7346C3.30561 36.6972 3.27682 36.6531 3.25739 36.6046C3.23797 36.5562 3.22828 36.5044 3.22888 36.4522C3.22948 36.4 3.24035 36.3485 3.26089 36.3005C3.28142 36.2525 3.31121 36.209 3.34855 36.1725C3.38589 36.136 3.43006 36.1073 3.47853 36.0878C3.53192 36.0669 8.9232 33.9166 18.7181 30.8982C19.0888 30.7844 19.4652 30.6707 19.8512 30.5539L20.1509 30.4607C20.1612 30.4569 20.1715 30.4538 20.182 30.4506C20.3033 30.4161 20.4245 30.3792 20.5476 30.342L20.7611 30.2771C20.8675 30.2449 20.9724 30.2131 21.0797 30.1836C22.0652 29.884 23.1047 29.5777 24.1803 29.2668C26.1633 28.6885 28.215 28.1098 30.2773 27.5467C30.2837 27.5443 30.2903 27.5428 30.2967 27.5408V27.5404C32.1275 27.0386 33.9797 26.5457 35.8017 26.076C37.4297 25.6533 38.9488 25.2683 40.4457 24.8988C41.4365 24.6524 42.445 24.4069 43.4713 24.1625C45.8512 23.5858 48.3353 23.009 50.8522 22.4486C52.9593 21.9781 55.0493 21.5256 57.0638 21.1041C64.9537 19.4499 73.047 17.9552 81.1182 16.6612C140.422 7.14963 233.214 2.79674 338.493 36.0781C338.584 36.1067 338.661 36.1667 338.711 36.2473C338.761 36.3279 338.781 36.4237 338.767 36.5175C338.752 36.6113 338.705 36.6968 338.633 36.7586C338.56 36.8204 338.469 36.8544 338.374 36.8544V36.8544Z" fill="#CCCCCC"/>
<path d="M104.568 166.863C104.43 166.461 104.199 166.097 103.892 165.802C103.779 165.697 103.656 165.603 103.526 165.52C102.488 164.828 100.938 164.673 99.9516 165.52C99.8523 165.606 99.7605 165.7 99.6773 165.802C99.383 166.164 99.0809 166.518 98.7707 166.863C98.2618 167.444 97.7409 168.004 97.1962 168.549C97.0411 168.7 96.886 168.855 96.727 169.006C96.6355 169.097 96.5441 169.184 96.4526 169.272C96.1027 169.606 95.7449 169.928 95.3831 170.246C95.1922 170.417 95.0013 170.583 94.8065 170.746C94.5163 170.989 94.226 171.231 93.9318 171.466C93.9039 171.486 93.8761 171.505 93.8483 171.529C93.8403 171.533 93.8363 171.541 93.8284 171.545C93.8244 171.545 93.8204 171.545 93.8165 171.553C93.8057 171.557 93.7961 171.564 93.7886 171.573C93.7011 171.633 93.6415 171.672 93.5978 171.708C93.6137 171.7 93.6296 171.688 93.6455 171.68C93.5739 171.736 93.4984 171.792 93.4268 171.847C92.731 172.36 92.0192 172.853 91.2916 173.314C89.4914 174.466 87.6004 175.469 85.6375 176.315C85.5063 176.366 85.3711 176.422 85.236 176.474C80.0966 178.578 74.5217 179.399 68.9934 178.866C68.4288 178.822 67.8642 178.763 67.2996 178.687C66.6475 178.592 65.9994 178.477 65.3553 178.346C62.903 177.856 60.5036 177.132 58.1903 176.183C55.2965 174.859 52.5442 173.245 49.9756 171.366C49.578 171.084 49.1764 170.802 48.7748 170.528C49.232 169.407 49.6813 168.286 50.1187 167.157C50.3374 166.613 50.5481 166.068 50.7549 165.52C52.3811 161.295 53.908 157.031 55.3712 152.75C56.8503 148.414 58.2459 144.053 59.5581 139.666C59.6932 139.221 59.8245 138.776 59.9517 138.331C60.6396 136.014 61.2996 133.691 61.9318 131.364C61.9915 131.137 62.0551 130.914 62.1107 130.688C62.2936 130.02 62.4726 129.352 62.6475 128.685C63.0451 127.178 62.1465 125.378 60.564 125.016C59.8021 124.821 58.9941 124.929 58.3102 125.318C57.6264 125.706 57.1201 126.345 56.898 127.099C56.727 127.743 56.5561 128.383 56.3811 129.027C55.5422 132.139 54.6595 135.24 53.733 138.331C53.5978 138.776 53.4626 139.221 53.3275 139.666C51.2837 146.399 49.0398 153.064 46.5959 159.662C46.3016 160.46 46.0034 161.257 45.7012 162.05C45.5541 162.44 45.407 162.829 45.2559 163.219C44.9656 163.986 44.6674 164.753 44.3692 165.52C44.1982 165.969 44.0233 166.418 43.8484 166.863C43.733 167.146 43.6217 167.428 43.5104 167.706C42.3767 167.299 41.2022 167.017 40.0074 166.863L39.8165 166.839C38.8903 166.728 37.9535 166.736 37.0293 166.863C35.646 167.025 34.3151 167.488 33.1306 168.22C31.9461 168.952 30.9369 169.935 30.1744 171.1C28.2778 174.085 28.3016 178.353 30.9617 180.889C33.7012 183.5 37.8484 183.481 41.073 181.847C42.7819 180.923 44.2227 179.573 45.2559 177.928C45.6517 177.332 46.0154 176.715 46.3454 176.08C46.4289 176.136 46.5124 176.191 46.5959 176.251C46.9139 176.474 47.232 176.7 47.5462 176.923C49.3764 178.248 51.3051 179.432 53.3155 180.464C57.6384 182.612 62.2916 184.019 67.0809 184.625C67.1883 184.637 67.2916 184.653 67.399 184.665C67.9278 184.732 68.4606 184.784 68.9934 184.828C76.6364 185.404 84.2888 183.84 91.0928 180.313C91.6693 180.015 92.2406 179.702 92.8065 179.375C93.6852 178.866 94.5441 178.326 95.3831 177.753C95.8403 177.443 96.2856 177.129 96.727 176.799C98.6556 175.38 100.453 173.79 102.099 172.05C102.723 171.394 103.321 170.717 103.892 170.019C104.432 169.448 104.744 168.698 104.767 167.913C104.764 167.554 104.696 167.198 104.568 166.863V166.863ZM38.7271 176.33C38.8106 176.271 38.8941 176.207 38.9736 176.144C38.9498 176.203 38.8344 176.271 38.7271 176.33H38.7271ZM40.0034 175.047C39.912 175.15 39.8285 175.253 39.737 175.357C39.4588 175.668 39.1599 175.96 38.8424 176.231C38.7986 176.271 38.7509 176.311 38.7032 176.346C38.7027 176.346 38.7022 176.346 38.7017 176.347C38.7012 176.347 38.7008 176.347 38.7004 176.348C38.7 176.348 38.6997 176.348 38.6995 176.349C38.6993 176.349 38.6992 176.35 38.6992 176.35C38.6418 176.376 38.586 176.405 38.5322 176.438C38.3613 176.541 38.1863 176.637 38.0074 176.724C37.6571 176.853 37.2967 176.953 36.9299 177.022C36.648 177.043 36.3651 177.045 36.083 177.03H36.075C35.8802 176.987 35.6878 176.934 35.4985 176.871C35.403 176.823 35.3116 176.768 35.2201 176.712C35.1843 176.68 35.1525 176.648 35.1327 176.629C35.0938 176.593 35.0579 176.555 35.0253 176.513C35.0253 176.513 35.0252 176.512 35.025 176.512C35.0248 176.511 35.0246 176.511 35.0242 176.51C35.0238 176.51 35.0234 176.51 35.0229 176.51C35.0224 176.509 35.0219 176.509 35.0213 176.509C34.9776 176.43 34.9299 176.35 34.8862 176.271C34.8839 176.269 34.8825 176.266 34.8822 176.263C34.8504 176.164 34.8225 176.06 34.7987 175.957C34.7901 175.775 34.7914 175.594 34.8027 175.412C34.856 175.158 34.9278 174.909 35.0174 174.665C35.0979 174.492 35.1895 174.325 35.2917 174.164C35.2997 174.149 35.3394 174.085 35.3832 174.013C35.3872 174.009 35.3871 174.009 35.3871 174.005C35.4468 173.938 35.5064 173.866 35.5701 173.803C35.6774 173.684 35.7927 173.58 35.908 173.473C36.1323 173.326 36.3646 173.192 36.6039 173.071C36.9834 172.937 37.3729 172.832 37.7689 172.757C38.3527 172.711 38.9395 172.716 39.5223 172.773C40.0744 172.869 40.6191 173.003 41.1525 173.175C40.8293 173.802 40.4612 174.405 40.0512 174.979C40.0352 175.003 40.0193 175.027 40.0034 175.047V175.047ZM35.582 173.739C35.5469 173.795 35.5056 173.847 35.4587 173.894C35.4903 173.836 35.532 173.783 35.582 173.739V173.739Z" fill="#3F3D56"/>
<path d="M92.6157 126.272C92.5799 127.52 92.5441 128.768 92.5083 130.016C92.4328 132.786 92.3546 135.558 92.2737 138.331C92.1902 141.451 92.1027 144.569 92.0113 147.687C91.9675 149.296 91.9225 150.906 91.8761 152.516C91.7528 156.852 91.6309 161.187 91.5103 165.52C91.4984 165.969 91.4825 166.414 91.4705 166.863C91.4109 169.014 91.3512 171.164 91.2916 173.314C91.224 175.647 91.1577 177.98 91.0928 180.313C91.0451 182.062 90.996 183.812 90.9457 185.563C90.5878 198.254 90.23 210.944 89.8721 223.634C89.857 224.42 89.538 225.17 88.982 225.725C88.426 226.281 87.6762 226.6 86.89 226.615C86.1011 226.609 85.3463 226.293 84.7884 225.735C84.2305 225.178 83.9143 224.423 83.9079 223.634C84.1067 216.496 84.3082 209.358 84.5123 202.22C84.6912 195.766 84.8728 189.311 85.057 182.857C85.1167 180.73 85.1763 178.603 85.236 176.474C85.3274 173.27 85.4175 170.067 85.5063 166.863C85.5183 166.414 85.5342 165.969 85.5461 165.52C85.554 165.127 85.566 164.737 85.5779 164.344C85.7528 158.124 85.9278 151.902 86.1028 145.68C86.1743 143.231 86.2432 140.782 86.3095 138.331C86.389 135.537 86.4686 132.744 86.5481 129.953C86.5839 128.725 86.6157 127.5 86.6515 126.272C86.6666 125.486 86.9856 124.737 87.5416 124.181C88.0976 123.625 88.8474 123.307 89.6336 123.291C90.4225 123.298 91.1773 123.614 91.7352 124.172C92.2931 124.729 92.6093 125.484 92.6157 126.272V126.272Z" fill="#3F3D56"/>
<path d="M256.205 127.099C253.078 138.935 249.341 150.601 245.008 162.051C243.812 165.21 242.589 168.361 241.282 171.475L241.582 170.763C240.999 172.247 240.253 173.661 239.36 174.981C239.299 175.066 239.237 175.15 239.174 175.234C239.483 174.839 239.542 174.761 239.35 175C239.249 175.119 239.149 175.239 239.045 175.356C238.767 175.667 238.468 175.96 238.151 176.231C238.071 176.3 237.99 176.366 237.908 176.432L238.28 176.142C238.237 176.244 237.933 176.38 237.839 176.437C237.532 176.622 237.213 176.784 236.883 176.922L237.595 176.621C237.054 176.839 236.489 176.994 235.913 177.082L236.705 176.976C236.139 177.054 235.565 177.06 234.996 176.994L235.789 177.101C235.324 177.037 234.869 176.914 234.435 176.736L235.148 177.037C234.916 176.936 234.693 176.817 234.48 176.681C234.372 176.61 234.041 176.359 234.474 176.69C234.925 177.035 234.532 176.72 234.439 176.628C234.362 176.552 234.292 176.469 234.217 176.392C233.866 176.032 234.613 177.011 234.375 176.59C234.247 176.379 234.131 176.162 234.026 175.94L234.326 176.652C234.189 176.313 234.092 175.959 234.037 175.598L234.143 176.39C234.086 175.941 234.086 175.486 234.142 175.037L234.035 175.829C234.108 175.328 234.241 174.837 234.431 174.367L234.13 175.079C234.263 174.763 234.419 174.457 234.599 174.165C234.681 174.014 234.778 173.872 234.888 173.74C234.908 173.746 234.384 174.341 234.662 174.04C234.735 173.962 234.803 173.879 234.876 173.801C234.994 173.676 235.12 173.562 235.244 173.444C235.66 173.049 234.663 173.828 235.142 173.515C235.49 173.287 235.855 173.088 236.235 172.92L235.523 173.22C236.16 172.959 236.827 172.78 237.509 172.688L236.717 172.794C237.571 172.696 238.434 172.706 239.285 172.824L238.493 172.718C239.571 172.881 240.625 173.178 241.63 173.6L240.918 173.3C243.061 174.219 244.959 175.585 246.854 176.924C248.684 178.248 250.612 179.432 252.622 180.463C256.945 182.612 261.598 184.019 266.388 184.626C273.257 185.467 280.227 184.571 286.659 182.018C293.091 179.466 298.779 175.34 303.201 170.019C303.741 169.447 304.051 168.697 304.075 167.912C304.069 167.122 303.756 166.366 303.201 165.804C302.107 164.8 300.04 164.516 298.984 165.804C297.982 167.026 296.906 168.184 295.76 169.272C295.226 169.779 294.677 170.271 294.113 170.747C293.792 171.019 293.466 171.285 293.135 171.546C292.979 171.67 292.491 171.998 293.24 171.468C293.068 171.589 292.904 171.722 292.734 171.847C290.23 173.692 287.517 175.235 284.65 176.443L285.362 176.143C282.286 177.433 279.056 178.318 275.752 178.775L276.544 178.669C273.145 179.115 269.702 179.11 266.304 178.653L267.097 178.76C263.7 178.294 260.378 177.389 257.214 176.069L257.926 176.37C254.872 175.019 251.975 173.341 249.283 171.365C247.883 170.329 246.406 169.399 244.865 168.586C243.069 167.669 241.126 167.078 239.124 166.841C235.371 166.4 231.547 167.861 229.483 171.102C227.584 174.085 227.609 178.353 230.268 180.889C233.007 183.501 237.154 183.479 240.382 181.845C243.49 180.272 245.357 177.002 246.67 173.92C249.625 166.982 252.241 159.884 254.678 152.75C257.089 145.693 259.276 138.563 261.238 131.363C261.481 130.471 261.72 129.578 261.956 128.684C262.354 127.179 261.455 125.378 259.873 125.018C259.111 124.821 258.303 124.929 257.618 125.317C256.934 125.706 256.427 126.345 256.205 127.099L256.205 127.099Z" fill="#3F3D56"/>
<path d="M285.96 126.272L284.886 164.345L283.818 202.219L283.215 223.635C283.221 224.423 283.538 225.177 284.096 225.735C284.653 226.293 285.408 226.609 286.197 226.615C286.983 226.6 287.733 226.281 288.289 225.726C288.845 225.17 289.164 224.42 289.179 223.635L290.252 185.562L291.32 147.688L291.924 126.272C291.917 125.484 291.601 124.729 291.043 124.172C290.485 123.614 289.731 123.298 288.942 123.291C288.156 123.306 287.406 123.625 286.85 124.181C286.294 124.737 285.975 125.486 285.96 126.272V126.272Z" fill="#3F3D56"/>
<path opacity="0.2" d="M182.74 213.005H183.666V170.859H205.268V169.936H183.666V152.152H200.348C200.103 151.841 199.852 151.535 199.593 151.232H183.666V139.486C183.359 139.355 183.051 139.23 182.74 139.111V151.232H164.588V136.182C164.277 136.196 163.971 136.218 163.662 136.244V151.232H149.181V140.003C148.87 140.141 148.563 140.286 148.26 140.438V151.232H136.086V152.152H148.26V169.936H136.086V170.859H148.26V213.005H149.181V170.859C151.083 170.859 152.966 171.233 154.723 171.96C156.48 172.687 158.077 173.754 159.421 175.098C160.766 176.442 161.833 178.038 162.56 179.794C163.288 181.551 163.662 183.433 163.662 185.334V213.005H164.588V170.859H182.74V213.005ZM149.181 169.936V152.152H163.662V169.936H149.181ZM164.588 169.936V152.152H164.951C167.287 152.153 169.601 152.613 171.759 153.506C173.917 154.4 175.878 155.71 177.53 157.362C179.182 159.013 180.492 160.973 181.386 163.131C182.28 165.288 182.74 167.601 182.74 169.936H164.588Z" fill="black"/>
<path d="M177.085 200.368C175.919 205.566 173.126 210.258 169.113 213.762C168.818 214.016 168.524 214.263 168.218 214.505C167.474 214.573 166.736 214.642 166.003 214.712C165.395 214.767 164.794 214.827 164.198 214.883L164.091 214.895L164.015 214.243L163.713 211.604C162.541 209.691 161.814 207.539 161.587 205.307C161.36 203.075 161.638 200.82 162.401 198.711C163.451 195.881 165.351 193.381 167.22 190.901C169.8 187.475 172.309 184.089 172.401 179.911C173.671 181.536 174.726 183.316 175.542 185.209C174.772 185.572 174.081 186.081 173.506 186.708C173.343 186.887 173.18 187.137 173.291 187.352C173.387 187.535 173.625 187.578 173.832 187.602C174.329 187.654 174.83 187.705 175.327 187.757C175.725 187.801 176.123 187.841 176.52 187.884C177.001 189.462 177.327 191.084 177.494 192.725C177.762 195.278 177.624 197.858 177.085 200.368V200.368Z" fill="#3F3D56"/>
<path d="M190.285 189.951C187.94 191.656 186.568 194.108 185.502 196.811C184.41 197.16 183.428 197.788 182.651 198.631C182.488 198.81 182.325 199.06 182.437 199.275C182.532 199.458 182.771 199.502 182.977 199.525C183.474 199.577 183.975 199.629 184.472 199.68C183.407 202.876 182.429 206.183 180.544 208.881C179.291 210.663 177.657 212.144 175.761 213.217C175.244 213.512 174.71 213.776 174.162 214.008C172.142 214.163 170.161 214.329 168.218 214.505C167.474 214.573 166.736 214.642 166.003 214.712C165.395 214.767 164.794 214.827 164.198 214.883C164.194 214.664 164.194 214.446 164.198 214.227C164.324 208.404 166.467 202.805 170.262 198.385C170.441 198.178 170.624 197.975 170.81 197.773C172.733 195.72 174.994 194.013 177.494 192.725C181.434 190.677 185.851 189.72 190.285 189.951V189.951Z" fill="#6C63FF"/>
<path d="M166.691 212.673L166.234 214.024L166.003 214.712C165.395 214.767 164.794 214.827 164.198 214.883L164.091 214.895C163.431 214.962 162.775 215.03 162.119 215.097C161.948 214.899 161.777 214.696 161.61 214.489C157.459 209.466 155.467 203.004 156.068 196.517C156.67 190.03 159.815 184.044 164.818 179.868C164.293 182.614 164.906 185.245 165.912 187.856C165.804 187.9 165.701 187.944 165.602 187.992C164.832 188.354 164.14 188.863 163.566 189.49C163.403 189.669 163.24 189.919 163.351 190.134C163.447 190.317 163.685 190.36 163.892 190.384C164.389 190.436 164.89 190.487 165.387 190.539C165.785 190.583 166.182 190.623 166.58 190.666C166.767 190.686 166.954 190.706 167.14 190.726C167.168 190.786 167.192 190.841 167.22 190.901C168.353 193.357 169.574 195.825 170.262 198.385C170.434 199.027 170.57 199.678 170.667 200.336C170.973 202.559 170.775 204.822 170.087 206.958C169.398 209.093 168.238 211.047 166.691 212.673V212.673Z" fill="#6C63FF"/>
<path d="M206.714 155.028C203.291 148.354 197.988 142.738 191.751 138.612C185.494 134.491 178.314 131.981 170.851 131.307C169.873 131.218 168.893 131.166 167.91 131.151C166.748 131.133 149.275 136.171 143.422 140.285C137.572 144.348 132.759 149.73 129.373 155.995C125.992 162.294 124.33 169.371 124.551 176.516C124.841 183.704 126.846 190.718 130.397 196.975C133.901 203.211 138.875 208.497 144.888 212.374C150.987 216.264 157.113 226.577 164.313 226.941C171.568 227.308 179.842 217.579 186.458 214.625C193.075 211.647 198.796 206.987 203.049 201.11C207.183 195.351 209.857 188.676 210.842 181.656C211.865 174.469 211.388 167.057 208.933 160.188C208.303 158.423 207.562 156.699 206.714 155.028C206.007 153.635 203.932 153.122 202.634 153.958C201.965 154.37 201.481 155.024 201.281 155.783C201.082 156.543 201.184 157.35 201.564 158.037C201.98 158.855 202.366 159.686 202.723 160.532L202.423 159.82C203.775 163.069 204.694 166.481 205.157 169.97L205.05 169.177C205.543 172.962 205.534 176.795 205.024 180.577L205.131 179.784C204.615 183.566 203.605 187.264 202.127 190.783L202.427 190.071C201.667 191.867 200.781 193.607 199.775 195.277C199.265 196.121 198.724 196.946 198.152 197.75C197.901 198.103 197.642 198.45 197.381 198.796C197.041 199.247 197.845 198.206 197.494 198.649C197.434 198.724 197.374 198.8 197.314 198.875C197.133 199.101 196.95 199.324 196.764 199.546C195.525 201.024 194.172 202.404 192.718 203.673C192.356 203.989 191.988 204.298 191.614 204.599C191.427 204.75 191.243 204.906 191.049 205.046C191.056 205.041 191.677 204.57 191.309 204.843C191.194 204.929 191.079 205.017 190.964 205.102C190.192 205.674 189.4 206.216 188.588 206.729C186.718 207.906 184.756 208.932 182.721 209.794L183.433 209.494C179.923 210.971 176.234 211.98 172.461 212.495L173.253 212.389C169.482 212.898 165.659 212.905 161.886 212.409L162.679 212.515C159.249 212.055 155.895 211.148 152.701 209.819L153.413 210.119C151.563 209.338 149.779 208.409 148.079 207.341C147.237 206.811 146.417 206.248 145.62 205.653C145.506 205.568 145.393 205.481 145.28 205.396C144.916 205.121 145.541 205.599 145.546 205.602C145.335 205.45 145.131 205.288 144.936 205.115C144.551 204.801 144.171 204.481 143.798 204.153C142.305 202.838 140.91 201.415 139.626 199.896C139.305 199.516 138.99 199.131 138.682 198.739C138.549 198.57 138.306 198.227 138.843 198.95C138.772 198.854 138.699 198.761 138.627 198.666C138.456 198.439 138.287 198.21 138.12 197.98C137.536 197.172 136.981 196.345 136.455 195.497C135.266 193.579 134.228 191.572 133.352 189.493L133.652 190.205C132.217 186.792 131.236 183.206 130.734 179.538L130.84 180.331C130.387 176.95 130.38 173.524 130.821 170.142L130.714 170.934C131.166 167.659 132.048 164.457 133.336 161.412L133.036 162.124C133.847 160.218 134.803 158.377 135.897 156.617C136.444 155.736 137.024 154.877 137.637 154.04C137.777 153.849 137.917 153.66 138.06 153.472C138.189 153.302 138.543 152.879 137.938 153.627C137.998 153.553 138.055 153.478 138.113 153.404C138.449 152.978 138.794 152.559 139.147 152.146C140.482 150.584 141.928 149.12 143.474 147.766C143.865 147.423 144.262 147.088 144.665 146.761C144.848 146.612 145.032 146.464 145.218 146.318C145.292 146.26 145.367 146.203 145.441 146.144C144.647 146.776 145.22 146.316 145.401 146.181C146.231 145.559 147.084 144.968 147.96 144.408C149.905 143.164 151.951 142.086 154.077 141.185L153.365 141.486C156.451 140.191 170.121 137.134 172.607 137.468L171.814 137.361C175.469 137.871 179.041 138.858 182.439 140.295L181.726 139.995C183.448 140.726 185.122 141.566 186.736 142.51C187.543 142.983 188.334 143.482 189.109 144.006C189.476 144.254 189.839 144.508 190.198 144.767C190.377 144.896 190.556 145.027 190.733 145.16C190.831 145.233 190.929 145.308 191.028 145.382C191.441 145.691 190.459 144.933 190.892 145.276C192.341 146.414 193.718 147.642 195.014 148.953C195.651 149.601 196.265 150.27 196.858 150.959C197.162 151.312 197.459 151.671 197.751 152.035C197.896 152.215 198.389 152.87 197.785 152.068C197.932 152.264 198.082 152.459 198.228 152.656C199.484 154.356 200.6 156.156 201.564 158.037C202.277 159.427 204.342 159.945 205.644 159.106C206.313 158.695 206.798 158.041 206.997 157.281C207.197 156.522 207.095 155.714 206.714 155.028Z" fill="#3F3D56"/>
<path d="M171.967 203.673C171.659 203.687 171.354 203.606 171.094 203.442C170.833 203.277 170.63 203.036 170.511 202.752C170.392 202.468 170.364 202.154 170.429 201.853C170.495 201.552 170.651 201.278 170.877 201.069C170.915 200.919 170.942 200.81 170.98 200.66C170.967 200.627 170.953 200.594 170.94 200.562C169.556 197.264 160.727 206.457 160.345 209.557C160.177 210.927 160.248 212.315 160.555 213.661C157.695 207.425 156.21 200.648 156.2 193.788C156.2 192.066 156.295 190.346 156.487 188.636C156.645 187.233 156.865 185.841 157.146 184.458C158.678 176.957 161.969 169.926 166.748 163.944C169.482 164.096 171.877 163.68 172.108 158.385C172.149 157.443 172.848 156.628 173.002 155.7C172.741 155.734 172.476 155.756 172.215 155.773C172.134 155.777 172.048 155.781 171.967 155.786L171.936 155.787C171.65 155.8 171.365 155.73 171.118 155.585C170.87 155.44 170.669 155.226 170.54 154.97C170.411 154.714 170.358 154.426 170.389 154.14C170.42 153.855 170.533 153.585 170.713 153.362C170.826 153.223 170.939 153.085 171.052 152.947C171.223 152.733 171.398 152.523 171.569 152.309C171.589 152.289 171.608 152.268 171.625 152.245C171.822 152.002 172.018 151.762 172.215 151.518C171.856 150.961 171.373 150.494 170.804 150.154C168.832 149 166.111 149.8 164.687 151.583C163.258 153.365 162.989 155.867 163.485 158.094C163.973 159.99 164.78 161.789 165.872 163.413C165.765 163.55 165.653 163.683 165.546 163.82C163.592 166.332 161.888 169.03 160.46 171.875C160.864 168.72 155.922 157.325 154.011 154.912C151.716 152.013 147.009 153.278 146.604 156.953C146.6 156.989 146.597 157.024 146.593 157.06C146.877 157.22 147.155 157.39 147.426 157.569C147.768 157.797 148.033 158.123 148.186 158.504C148.339 158.885 148.373 159.304 148.284 159.704C148.195 160.105 147.988 160.47 147.688 160.751C147.388 161.031 147.01 161.215 146.605 161.278L146.563 161.284C142.763 166.707 154.944 180.82 157.992 177.651C156.557 181.716 155.657 185.951 155.315 190.248C155.121 192.783 155.132 195.329 155.349 197.863L155.336 197.773C154.659 192.255 143.037 184.052 139.644 184.735C137.689 185.129 135.763 185.039 136.06 187.011C136.065 187.042 136.07 187.073 136.075 187.105C136.601 187.319 137.114 187.566 137.61 187.845C137.894 188.005 138.172 188.175 138.444 188.354C138.785 188.582 139.05 188.908 139.203 189.289C139.356 189.67 139.39 190.089 139.302 190.489C139.213 190.89 139.005 191.255 138.705 191.536C138.405 191.816 138.028 192 137.622 192.063L137.58 192.069C137.55 192.073 137.525 192.078 137.495 192.082C135.765 198.03 148.591 207.63 156.388 204.575H156.393C157.165 207.932 158.285 211.199 159.733 214.324H171.668C171.71 214.191 171.749 214.055 171.787 213.922C170.683 213.991 169.574 213.925 168.485 213.725C169.371 212.639 170.256 211.545 171.141 210.459C171.161 210.438 171.18 210.417 171.197 210.395C171.646 209.839 172.1 209.287 172.549 208.731L172.549 208.731C172.573 207.027 172.377 205.327 171.967 203.673L171.967 203.673ZM158.3 176.801L158.307 176.792L158.3 176.809V176.801ZM155.657 200.62L155.554 200.39C155.559 200.223 155.559 200.056 155.554 199.885C155.554 199.838 155.546 199.791 155.546 199.744C155.584 200.039 155.618 200.334 155.661 200.629L155.657 200.62Z" fill="#3F3D56"/>
<path d="M37.8722 178.85C40.2878 178.85 42.246 176.893 42.246 174.478C42.246 172.064 40.2878 170.107 37.8722 170.107C35.4567 170.107 33.4985 172.064 33.4985 174.478C33.4985 176.893 35.4567 178.85 37.8722 178.85Z" fill="#3F3D56"/>
<path d="M90.3572 226.544C92.7728 226.544 94.731 224.586 94.731 222.172C94.731 219.757 92.7728 217.8 90.3572 217.8C87.9417 217.8 85.9835 219.757 85.9835 222.172C85.9835 224.586 87.9417 226.544 90.3572 226.544Z" fill="#3F3D56"/>
<path d="M289.562 226.544C291.977 226.544 293.935 224.586 293.935 222.172C293.935 219.757 291.977 217.8 289.562 217.8C287.146 217.8 285.188 219.757 285.188 222.172C285.188 224.586 287.146 226.544 289.562 226.544Z" fill="#3F3D56"/>
<path d="M300.297 170.901C302.713 170.901 304.671 168.944 304.671 166.529C304.671 164.115 302.713 162.158 300.297 162.158C297.882 162.158 295.923 164.115 295.923 166.529C295.923 168.944 297.882 170.901 300.297 170.901Z" fill="#3F3D56"/>
<path d="M287.574 130.362C289.989 130.362 291.947 128.405 291.947 125.99C291.947 123.576 289.989 121.618 287.574 121.618C285.158 121.618 283.2 123.576 283.2 125.99C283.2 128.405 285.158 130.362 287.574 130.362Z" fill="#3F3D56"/>
<path d="M105.069 166.53C105.066 167.646 104.634 168.719 103.862 169.526C103.09 170.334 102.037 170.813 100.921 170.866C99.8053 170.919 98.7117 170.541 97.8669 169.81C97.022 169.079 96.4905 168.052 96.3824 166.94C96.2743 165.829 96.5978 164.718 97.2861 163.839C97.9743 162.959 98.9745 162.377 100.08 162.214C101.185 162.051 102.311 162.319 103.224 162.963C104.137 163.606 104.768 164.576 104.985 165.671C105.042 165.954 105.069 166.241 105.069 166.53V166.53Z" fill="#3F3D56"/>
<path d="M192.544 143.08C194.96 143.08 196.918 141.123 196.918 138.708C196.918 136.294 194.96 134.336 192.544 134.336C190.128 134.336 188.17 136.294 188.17 138.708C188.17 141.123 190.128 143.08 192.544 143.08Z" fill="#3F3D56"/>
<path d="M149.204 138.708C149.201 139.825 148.769 140.898 147.997 141.705C147.225 142.512 146.172 142.992 145.056 143.045C143.94 143.098 142.847 142.72 142.002 141.989C141.157 141.258 140.626 140.231 140.518 139.119C140.409 138.008 140.733 136.897 141.421 136.018C142.109 135.138 143.11 134.556 144.215 134.393C145.32 134.23 146.446 134.498 147.359 135.141C148.272 135.785 148.903 136.755 149.121 137.85C149.177 138.133 149.205 138.42 149.204 138.708V138.708Z" fill="#3F3D56"/>
<path d="M92.7429 125.99C92.7403 127.107 92.3082 128.18 91.5362 128.987C90.7641 129.794 89.7112 130.274 88.5952 130.327C87.4792 130.379 86.3857 130.001 85.5408 129.271C84.696 128.54 84.1645 127.512 84.0564 126.401C83.9483 125.289 84.2718 124.179 84.96 123.299C85.6482 122.42 86.6485 121.838 87.7537 121.675C88.859 121.512 89.9846 121.78 90.8978 122.423C91.8109 123.067 92.4416 124.036 92.6594 125.132C92.7155 125.414 92.7435 125.702 92.7429 125.99V125.99Z" fill="#3F3D56"/>
<path d="M238.27 180.44C240.685 180.44 242.643 178.483 242.643 176.068C242.643 173.654 240.685 171.696 238.27 171.696C235.854 171.696 233.896 173.654 233.896 176.068C233.896 178.483 235.854 180.44 238.27 180.44Z" fill="#3F3D56"/>
<path d="M169.482 140.696C172.996 140.696 175.844 137.849 175.844 134.336C175.844 130.824 172.996 127.977 169.482 127.977C165.969 127.977 163.121 130.824 163.121 134.336C163.121 137.849 165.969 140.696 169.482 140.696Z" fill="#3F3D56"/>
<path d="M341.527 226.878L0.473428 227C0.411256 227 0.349692 226.988 0.292252 226.964C0.234813 226.94 0.182626 226.905 0.138664 226.861C0.0947015 226.817 0.0598247 226.765 0.0360325 226.708C0.0122404 226.65 0 226.589 0 226.527C0 226.465 0.0122404 226.403 0.0360325 226.346C0.0598247 226.288 0.0947015 226.236 0.138664 226.192C0.182626 226.148 0.234813 226.113 0.292252 226.09C0.349692 226.066 0.411256 226.054 0.473428 226.054L341.527 225.931C341.652 225.932 341.772 225.982 341.86 226.07C341.949 226.159 341.999 226.279 341.999 226.405C341.999 226.53 341.949 226.65 341.86 226.739C341.772 226.827 341.652 226.877 341.527 226.878V226.878Z" fill="#CACACA"/>
</g>
<defs>
<clipPath id="clip0_1_32">
<rect width="342" height="227" fill="white"/>
</clipPath>
</defs>
</svg>
