<svg width="353" height="226" viewBox="0 0 353 226" fill="none" xmlns="http://www.w3.org/2000/svg">
<g clip-path="url(#clip0_1_2)">
<path d="M329.737 225.176C325.164 222.12 322.861 216.306 322.77 210.811C322.74 208.968 323.205 206.831 324.858 206.012C325.331 205.777 325.86 205.677 326.386 205.724C326.912 205.77 327.415 205.961 327.84 206.274C328.264 206.588 328.594 207.013 328.793 207.502C328.991 207.991 329.05 208.525 328.964 209.045C329.577 207.253 330.372 205.527 331.337 203.896C332.154 202.516 333.301 201.078 334.902 200.947C336.758 200.795 338.309 202.596 338.572 204.438C338.835 206.28 338.164 208.114 337.505 209.854C337.691 209.066 338.072 208.337 338.614 207.734C339.155 207.131 339.839 206.673 340.603 206.402C341.367 206.132 342.187 206.057 342.988 206.185C343.788 206.312 344.544 206.638 345.186 207.133C347.001 208.533 347.6 211.11 347.143 213.355C346.686 215.6 345.345 217.565 343.861 219.312C342.122 221.361 340.108 223.234 337.696 224.423C335.285 225.613 332.433 226.068 329.867 225.261L329.737 225.176Z" fill="#F2F2F2"/>
<path d="M267.185 151.582C267.815 151.269 268.368 150.822 268.805 150.273C269.243 149.723 269.555 149.085 269.719 148.402C269.883 147.719 269.895 147.008 269.754 146.32C269.614 145.632 269.324 144.984 268.905 144.42L280.11 90.0775L269.654 89.9399L261.872 143.593C260.97 144.358 260.381 145.428 260.216 146.599C260.051 147.769 260.321 148.96 260.976 149.944C261.631 150.929 262.625 151.64 263.769 151.942C264.914 152.243 266.129 152.115 267.185 151.582V151.582Z" fill="#FFB8B8"/>
<path d="M318.118 148.76C318.631 148.28 319.034 147.694 319.296 147.043C319.558 146.391 319.674 145.69 319.636 144.989C319.598 144.288 319.406 143.604 319.074 142.985C318.742 142.365 318.279 141.827 317.716 141.406L312.903 86.1315L302.844 88.9851L310.74 142.621C310.095 143.612 309.836 144.805 310.013 145.974C310.19 147.143 310.79 148.207 311.699 148.964C312.609 149.72 313.764 150.117 314.947 150.08C316.13 150.042 317.258 149.573 318.118 148.76V148.76Z" fill="#FFB8B8"/>
<path d="M285.849 220.05L280.361 220.05L277.751 198.906L285.85 198.907L285.849 220.05Z" fill="#FFB8B8"/>
<path d="M276.442 218.483H287.025V225.14H269.778C269.778 223.374 270.48 221.681 271.73 220.433C272.979 219.185 274.674 218.483 276.442 218.483V218.483Z" fill="#2F2E41"/>
<path d="M310.469 220.05L304.981 220.05L302.37 198.906L310.47 198.907L310.469 220.05Z" fill="#FFB8B8"/>
<path d="M301.061 218.483H311.645V225.14H294.397C294.397 223.374 295.099 221.681 296.349 220.433C297.599 219.185 299.294 218.483 301.061 218.483V218.483Z" fill="#2F2E41"/>
<path d="M287.271 68.9866C293.343 68.9866 298.265 64.07 298.265 58.0051C298.265 51.9401 293.343 47.0235 287.271 47.0235C281.199 47.0235 276.277 51.9401 276.277 58.0051C276.277 64.07 281.199 68.9866 287.271 68.9866Z" fill="#FFB8B8"/>
<path d="M302.727 206.709C302.28 206.707 301.847 206.551 301.502 206.266C301.156 205.982 300.92 205.587 300.833 205.149L293.401 166.739C293.333 166.387 293.141 166.071 292.86 165.849C292.578 165.627 292.227 165.512 291.868 165.527C291.51 165.541 291.169 165.683 290.906 165.927C290.644 166.172 290.478 166.502 290.439 166.858L286.277 204.271C286.228 204.728 286.016 205.152 285.681 205.466C285.345 205.78 284.908 205.963 284.448 205.982L278.206 206.265C277.952 206.278 277.699 206.241 277.46 206.154C277.221 206.067 277.002 205.934 276.816 205.761C276.628 205.59 276.476 205.384 276.369 205.154C276.263 204.924 276.202 204.675 276.193 204.421L273.799 146.628C273.786 146.336 273.84 146.045 273.957 145.777C274.074 145.51 274.251 145.272 274.474 145.083L275.858 143.904C276.207 143.607 276.651 143.444 277.109 143.443H309.463C309.974 143.444 310.464 143.647 310.825 144.008C311.187 144.369 311.39 144.858 311.391 145.369V204.491C311.392 204.987 311.2 205.465 310.856 205.823C310.513 206.182 310.043 206.394 309.547 206.414L302.81 206.707C302.782 206.708 302.754 206.709 302.727 206.709Z" fill="#2F2E41"/>
<path d="M286.157 151.852C280.926 151.852 276.316 150.46 273.988 146.4C273.793 146.065 273.702 145.681 273.726 145.294L276.65 100.638C276.674 100.277 276.566 99.9198 276.346 99.6321L268.14 88.8843C267.986 88.6828 267.873 88.4531 267.809 88.2081C267.744 87.9632 267.728 87.7079 267.762 87.4568C267.797 87.2058 267.88 86.964 268.008 86.7453C268.136 86.5266 268.306 86.3353 268.508 86.1823L280.819 76.8665C281.077 76.6703 281.266 76.3959 281.355 76.0843L281.714 74.8307C281.825 74.4402 282.057 74.0949 282.377 73.8442C282.696 73.5936 283.087 73.4505 283.493 73.4354L292.527 73.0882C292.828 73.0781 293.127 73.138 293.401 73.2633C293.676 73.3885 293.917 73.5756 294.106 73.8098L295.067 75.0099C295.19 75.1632 295.341 75.2908 295.513 75.3856L310.62 83.7245C310.919 83.8895 311.168 84.1305 311.343 84.4229C311.517 84.7153 311.612 85.0487 311.616 85.3892L311.616 85.416L311.61 85.4415C308.088 100.108 308.286 118.646 312.233 143.783C312.244 144.166 312.139 144.544 311.933 144.868C311.728 145.192 311.43 145.446 311.078 145.6C307.808 147.014 295.907 151.852 286.157 151.852Z" fill="#6C63FF"/>
<path d="M276.958 105.789H266.726C266.464 105.789 266.204 105.736 265.963 105.633C265.722 105.529 265.504 105.377 265.324 105.187C265.144 104.996 265.004 104.771 264.914 104.524C264.825 104.278 264.786 104.016 264.801 103.754C264.954 101.151 265.254 96.199 265.555 92.294C265.987 86.6746 271.5 83.9088 271.555 83.8812L271.663 83.8286L275.385 86.1882L278.848 103.486C278.904 103.765 278.897 104.054 278.828 104.33C278.759 104.606 278.629 104.864 278.448 105.084C278.268 105.304 278.04 105.482 277.782 105.604C277.525 105.726 277.243 105.789 276.958 105.789H276.958Z" fill="#6C63FF"/>
<path d="M304.995 104.835C304.725 104.833 304.459 104.775 304.213 104.664C303.967 104.553 303.747 104.392 303.567 104.19C303.387 103.989 303.252 103.752 303.169 103.496C303.087 103.239 303.059 102.968 303.088 102.7L304.977 85.3471L308.625 82.6782L308.708 82.6874C308.747 82.692 312.633 83.1767 314.374 87.5241C315.614 90.6201 317.508 96.3419 318.526 99.4771C318.608 99.7291 318.636 99.9952 318.61 100.259C318.584 100.522 318.504 100.778 318.375 101.009C318.245 101.24 318.069 101.442 317.858 101.602C317.647 101.762 317.405 101.877 317.147 101.939L305.46 104.779C305.308 104.816 305.152 104.835 304.995 104.835V104.835Z" fill="#6C63FF"/>
<path d="M287.522 69.0632C289.873 65.3472 286.937 55.1181 280.541 54.8513C279.064 54.7896 278.497 52.6431 277.995 51.2545C277.739 50.4494 277.671 49.5966 277.796 48.7613C277.921 47.9259 278.236 47.1302 278.716 46.4349C279.692 45.0494 281.037 43.964 282.599 43.3014C284.355 42.4954 286.265 42.0762 288.198 42.0723C290.131 42.0684 292.042 42.48 293.802 43.2789C295.561 44.0779 297.129 45.2456 298.397 46.7029C299.665 48.1602 300.604 49.8728 301.151 51.7247C301.698 53.5766 301.839 55.5243 301.566 57.4356C301.293 59.347 300.612 61.1774 299.568 62.8024C298.524 64.4275 297.142 65.8092 295.517 66.8539C293.891 67.8986 292.06 68.5817 290.146 68.857L287.522 69.0632Z" fill="#2F2E41"/>
<path d="M221.127 -7.62939e-06H3.13338C2.30264 0.000913089 1.50618 0.330958 0.91876 0.917709C0.331338 1.50446 0.000921772 2.3 0 3.12979V150.677C0.000922955 151.507 0.331338 152.303 0.91876 152.889C1.50618 153.476 2.30264 153.806 3.13338 153.807H221.127C221.958 153.806 222.754 153.476 223.341 152.889C223.929 152.303 224.259 151.507 224.26 150.677V3.12979C224.259 2.3 223.929 1.50446 223.341 0.917709C222.754 0.330958 221.958 0.000913089 221.127 -7.62939e-06V-7.62939e-06ZM223.365 150.677C223.365 151.27 223.129 151.839 222.709 152.258C222.289 152.677 221.72 152.913 221.127 152.913H3.13338C2.53986 152.913 1.97072 152.677 1.55104 152.258C1.13136 151.839 0.895487 151.27 0.89525 150.677V3.12979C0.895487 2.53695 1.13136 1.96846 1.55104 1.54927C1.97072 1.13007 2.53986 0.894456 3.13338 0.894219H221.127C221.72 0.894456 222.289 1.13007 222.709 1.54927C223.129 1.96846 223.365 2.53695 223.365 3.12979V150.677Z" fill="#3F3D56"/>
<path d="M223.813 12.537H0.447632V13.4313H223.813V12.537Z" fill="#3F3D56"/>
<path d="M8.05724 9.38938C9.54054 9.38938 10.743 8.1883 10.743 6.7067C10.743 5.22509 9.54054 4.02402 8.05724 4.02402C6.57394 4.02402 5.37149 5.22509 5.37149 6.7067C5.37149 8.1883 6.57394 9.38938 8.05724 9.38938Z" fill="#3F3D56"/>
<path d="M15.7788 9.38938C17.2621 9.38938 18.4645 8.1883 18.4645 6.7067C18.4645 5.22509 17.2621 4.02402 15.7788 4.02402C14.2955 4.02402 13.093 5.22509 13.093 6.7067C13.093 8.1883 14.2955 9.38938 15.7788 9.38938Z" fill="#3F3D56"/>
<path d="M23.5003 9.38938C24.9836 9.38938 26.1861 8.1883 26.1861 6.7067C26.1861 5.22509 24.9836 4.02402 23.5003 4.02402C22.017 4.02402 20.8146 5.22509 20.8146 6.7067C20.8146 8.1883 22.017 9.38938 23.5003 9.38938Z" fill="#3F3D56"/>
<path d="M180.763 43.1306H41.9992C40.1591 43.1306 38.3944 42.4005 37.0932 41.1008C35.792 39.8011 35.061 38.0384 35.061 36.2003C35.061 34.3623 35.792 32.5996 37.0932 31.2999C38.3944 30.0002 40.1591 29.2701 41.9992 29.2701H180.763C182.603 29.2701 184.368 30.0002 185.669 31.2999C186.97 32.5996 187.701 34.3623 187.701 36.2003C187.701 38.0384 186.97 39.8011 185.669 41.1008C184.368 42.4005 182.603 43.1306 180.763 43.1306V43.1306ZM41.9992 30.1643C40.3965 30.1643 38.8595 30.8003 37.7262 31.9322C36.593 33.0642 35.9563 34.5995 35.9563 36.2003C35.9563 37.8012 36.593 39.3365 37.7262 40.4685C38.8595 41.6004 40.3965 42.2364 41.9992 42.2364H180.763C182.366 42.2364 183.903 41.6004 185.036 40.4685C186.169 39.3365 186.806 37.8012 186.806 36.2003C186.806 34.5995 186.169 33.0642 185.036 31.9322C183.903 30.8003 182.366 30.1643 180.763 30.1643H41.9992Z" fill="#3F3D56"/>
<path d="M77.8092 78.4526H50.9517C49.1116 78.4526 47.3468 77.7224 46.0457 76.4227C44.7445 75.1231 44.0135 73.3603 44.0135 71.5223C44.0135 69.6843 44.7445 67.9215 46.0457 66.6219C47.3468 65.3222 49.1116 64.592 50.9517 64.592H77.8092C79.6493 64.592 81.4141 65.3222 82.7153 66.6219C84.0164 67.9215 84.7474 69.6843 84.7474 71.5223C84.7474 73.3603 84.0164 75.1231 82.7153 76.4227C81.4141 77.7224 79.6493 78.4526 77.8092 78.4526V78.4526ZM50.9517 65.4863C49.349 65.4863 47.812 66.1222 46.6787 67.2542C45.5454 68.3862 44.9088 69.9214 44.9088 71.5223C44.9088 73.1232 45.5454 74.6585 46.6787 75.7904C47.812 76.9224 49.349 77.5583 50.9517 77.5583H77.8092C79.4119 77.5583 80.9489 76.9224 82.0822 75.7904C83.2155 74.6585 83.8522 73.1232 83.8522 71.5223C83.8522 69.9214 83.2155 68.3862 82.0822 67.2542C80.9489 66.1222 79.4119 65.4863 77.8092 65.4863H50.9517Z" fill="#3F3D56"/>
<path d="M77.8092 101.702H50.9517C49.1116 101.702 47.3468 100.972 46.0457 99.6726C44.7445 98.373 44.0135 96.6102 44.0135 94.7722C44.0135 92.9342 44.7445 91.1715 46.0457 89.8718C47.3468 88.5721 49.1116 87.8419 50.9517 87.8419H77.8092C79.6493 87.8419 81.4141 88.5721 82.7153 89.8718C84.0164 91.1715 84.7474 92.9342 84.7474 94.7722C84.7474 96.6102 84.0164 98.373 82.7153 99.6726C81.4141 100.972 79.6493 101.702 77.8092 101.702V101.702ZM50.9517 88.7362C49.349 88.7362 47.812 89.3721 46.6787 90.5041C45.5454 91.6361 44.9088 93.1714 44.9088 94.7722C44.9088 96.3731 45.5454 97.9084 46.6787 99.0403C47.812 100.172 49.349 100.808 50.9517 100.808H77.8092C79.4119 100.808 80.9489 100.172 82.0822 99.0403C83.2155 97.9084 83.8522 96.3731 83.8522 94.7722C83.8522 93.1714 83.2155 91.6361 82.0822 90.5041C80.9489 89.3721 79.4119 88.7362 77.8092 88.7362H50.9517Z" fill="#3F3D56"/>
<path d="M77.8092 124.952H50.9517C49.1116 124.952 47.3468 124.222 46.0457 122.923C44.7445 121.623 44.0135 119.86 44.0135 118.022C44.0135 116.184 44.7445 114.421 46.0457 113.122C47.3468 111.822 49.1116 111.092 50.9517 111.092H77.8092C79.6493 111.092 81.4141 111.822 82.7153 113.122C84.0164 114.421 84.7474 116.184 84.7474 118.022C84.7474 119.86 84.0164 121.623 82.7153 122.923C81.4141 124.222 79.6493 124.952 77.8092 124.952V124.952ZM50.9517 111.986C49.349 111.986 47.812 112.622 46.6787 113.754C45.5454 114.886 44.9088 116.421 44.9088 118.022C44.9088 119.623 45.5454 121.158 46.6787 122.29C47.812 123.422 49.349 124.058 50.9517 124.058H77.8092C79.4119 124.058 80.9489 123.422 82.0822 122.29C83.2155 121.158 83.8522 119.623 83.8522 118.022C83.8522 116.421 83.2155 114.886 82.0822 113.754C80.9489 112.622 79.4119 111.986 77.8092 111.986H50.9517Z" fill="#3F3D56"/>
<path d="M81.8379 39.3301H44.2373C43.4063 39.3301 42.6093 39.0004 42.0217 38.4134C41.4341 37.8265 41.104 37.0304 41.104 36.2003C41.104 35.3703 41.4341 34.5742 42.0217 33.9872C42.6093 33.4003 43.4063 33.0705 44.2373 33.0705H81.8379C82.6689 33.0705 83.4659 33.4003 84.0535 33.9872C84.6411 34.5742 84.9712 35.3703 84.9712 36.2003C84.9712 37.0304 84.6411 37.8265 84.0535 38.4134C83.4659 39.0004 82.6689 39.3301 81.8379 39.3301Z" fill="#6C63FF"/>
<path d="M176.063 37.7652C175.443 37.7652 174.837 37.5817 174.322 37.2378C173.807 36.8939 173.405 36.4051 173.168 35.8332C172.931 35.2613 172.869 34.632 172.99 34.0249C173.111 33.4177 173.409 32.8601 173.847 32.4224C174.286 31.9846 174.844 31.6866 175.452 31.5658C176.059 31.445 176.689 31.507 177.262 31.7439C177.835 31.9808 178.324 32.3819 178.668 32.8966C179.013 33.4113 179.196 34.0164 179.196 34.6354C179.195 35.4652 178.865 36.2608 178.278 36.8475C177.69 37.4343 176.894 37.7643 176.063 37.7652ZM176.063 32.3999C175.62 32.3999 175.188 32.531 174.82 32.7766C174.451 33.0223 174.165 33.3714 173.995 33.7799C173.826 34.1884 173.781 34.6379 173.868 35.0716C173.954 35.5052 174.167 35.9036 174.48 36.2162C174.793 36.5289 175.192 36.7418 175.626 36.8281C176.06 36.9143 176.51 36.8701 176.919 36.7009C177.328 36.5316 177.678 36.2451 177.924 35.8775C178.17 35.5098 178.301 35.0776 178.301 34.6354C178.3 34.0427 178.064 33.4745 177.645 33.0554C177.225 32.6363 176.656 32.4006 176.063 32.3999V32.3999Z" fill="#3F3D56"/>
<path d="M180.91 40.5966C180.851 40.5967 180.793 40.5851 180.739 40.5626C180.684 40.5402 180.635 40.5072 180.594 40.4656L177.449 37.324C177.407 37.2825 177.374 37.2332 177.352 37.179C177.329 37.1247 177.317 37.0666 177.317 37.0079C177.317 36.9492 177.329 36.891 177.352 36.8368C177.374 36.7826 177.407 36.7333 177.449 36.6918C177.49 36.6502 177.539 36.6173 177.594 36.5949C177.648 36.5724 177.706 36.5608 177.765 36.5608C177.824 36.5608 177.882 36.5724 177.936 36.5949C177.991 36.6173 178.04 36.6502 178.082 36.6918L181.227 39.8333C181.289 39.8959 181.332 39.9755 181.349 40.0623C181.366 40.149 181.357 40.2389 181.324 40.3205C181.29 40.4022 181.232 40.4721 181.159 40.5212C181.085 40.5703 180.999 40.5965 180.91 40.5966L180.91 40.5966Z" fill="#3F3D56"/>
<path d="M174.272 75.7699H159.053C157.925 75.7699 156.844 75.3224 156.046 74.5258C155.249 73.7292 154.801 72.6488 154.801 71.5223C154.801 70.3958 155.249 69.3154 156.046 68.5188C156.844 67.7222 157.925 67.2747 159.053 67.2747H174.272C175.4 67.2747 176.482 67.7222 177.279 68.5188C178.077 69.3154 178.525 70.3958 178.525 71.5223C178.525 72.6488 178.077 73.7292 177.279 74.5258C176.482 75.3224 175.4 75.7699 174.272 75.7699V75.7699Z" fill="#6C63FF"/>
<path d="M174.272 99.0198H159.053C157.925 99.0198 156.844 98.5723 156.046 97.7757C155.249 96.9791 154.801 95.8987 154.801 94.7722C154.801 93.6457 155.249 92.5653 156.046 91.7687C156.844 90.9721 157.925 90.5246 159.053 90.5246H174.272C175.4 90.5246 176.482 90.9721 177.279 91.7687C178.077 92.5653 178.525 93.6457 178.525 94.7722C178.525 95.8987 178.077 96.9791 177.279 97.7757C176.482 98.5723 175.4 99.0198 174.272 99.0198V99.0198Z" fill="#6C63FF"/>
<path d="M174.272 122.27H159.053C157.925 122.27 156.844 121.822 156.046 121.026C155.249 120.229 154.801 119.149 154.801 118.022C154.801 116.896 155.249 115.815 156.046 115.019C156.844 114.222 157.925 113.775 159.053 113.775H174.272C175.4 113.775 176.482 114.222 177.279 115.019C178.077 115.815 178.525 116.896 178.525 118.022C178.525 119.149 178.077 120.229 177.279 121.026C176.482 121.822 175.4 122.27 174.272 122.27V122.27Z" fill="#6C63FF"/>
<path d="M352.552 226H241.541C241.423 226 241.309 225.953 241.225 225.869C241.141 225.785 241.094 225.671 241.094 225.553C241.094 225.434 241.141 225.321 241.225 225.237C241.309 225.153 241.423 225.106 241.541 225.106H352.552C352.671 225.106 352.785 225.153 352.869 225.237C352.953 225.321 353 225.434 353 225.553C353 225.671 352.953 225.785 352.869 225.869C352.785 225.953 352.671 226 352.552 226Z" fill="#3F3D56"/>
</g>
<defs>
<clipPath id="clip0_1_2">
<rect width="353" height="226" fill="white"/>
</clipPath>
</defs>
</svg>
